# xmcd
#
# Track frame offsets:
#	150
#	24430
#	52126
#	63058
#	83431
#	90004
#	114681
#	134709
#	150088
#	168378
#	201750
#	228361
#	247670
#	268782
#	299531
#
# Disc length: 4390 seconds
#
# Revision: 1
# Processed by: cddbd v1.5.2PL0 Copyright (c) Steve Scherf et al.
# Submitted via: audiograbber 1.83.01
#
DISCID=bb11240f
DTITLE=Grateful Dead - 71-10-01 Studio Rehearsal with Keith Godchaux, Santa Ven
DTITLE=etia CA
DYEAR=1900
DGENRE=
TTITLE0=Deal
TTITLE1=Tennessee Jed
TTITLE2=Jam
TTITLE3=Brown-Eyed Women
TTITLE4=Banter
TTITLE5=Casey Jones
TTITLE6=Jack Straw
TTITLE7=Mexicali Blues
TTITLE8=One More Saturday Night
TTITLE9=Loser
TTITLE10=Cold Rain and Snow
TTITLE11=Ripple
TTITLE12=Cumberland Blues
TTITLE13=Uncle John's Band
TTITLE14=Bird Song
EXTD=
EXTT0=
EXTT1=
EXTT2=
EXTT3=
EXTT4=
EXTT5=
EXTT6=
EXTT7=
EXTT8=
EXTT9=
EXTT10=
EXTT11=
EXTT12=
EXTT13=
EXTT14=
PLAYORDER=
